<svg width="570" height="781" viewBox="0 0 570 781" fill="none" xmlns="http://www.w3.org/2000/svg">
<path fill-rule="evenodd" clip-rule="evenodd" d="M260.911 33.5809C337.93 12.3482 413.721 57.3789 493.583 55.8685C592.034 54.0065 707.524 -42.7931 779.991 23.7634C852.642 90.4885 765.756 214.028 772.918 312.421C778.656 391.236 833.323 461.875 817.523 539.326C799.456 627.885 761.533 725.601 680.453 765.669C599.973 805.441 507.084 755.561 419.515 736.013C343.117 718.959 267.84 704.071 203.705 659.247C132.036 609.156 65.3315 549.005 34.7595 467.101C0.999335 376.656 -18.1415 270.284 26.5444 184.624C70.5946 100.182 169.072 58.8996 260.911 33.5809Z" fill="#FFE9E2"/>
</svg>
