<svg width="170" height="46" viewBox="0 0 170 46" fill="none" xmlns="http://www.w3.org/2000/svg">
<path d="M49.5053 33H44.7965V18.4545H49.6545C51.0796 18.4545 52.3036 18.7457 53.3263 19.3281C54.3491 19.9057 55.1327 20.7367 55.6772 21.821C56.2264 22.9005 56.501 24.1955 56.501 25.7059C56.501 27.2211 56.2241 28.5232 55.6701 29.6122C55.1208 30.7012 54.3254 31.5393 53.2837 32.1264C52.242 32.7088 50.9826 33 49.5053 33ZM46.9911 31.0824H49.3846C50.4925 31.0824 51.4134 30.874 52.1474 30.4574C52.8813 30.036 53.4305 29.4275 53.7951 28.6321C54.1597 27.8319 54.342 26.8565 54.342 25.7059C54.342 24.5648 54.1597 23.5966 53.7951 22.8011C53.4352 22.0057 52.8978 21.402 52.1829 20.99C51.4679 20.5781 50.5801 20.3721 49.5195 20.3721H46.9911V31.0824ZM59.0596 33V22.0909H61.1122V23.8238H61.2258C61.4247 23.2367 61.7751 22.7751 62.277 22.4389C62.7836 22.098 63.3565 21.9275 63.9957 21.9275C64.1283 21.9275 64.2845 21.9323 64.4645 21.9417C64.6491 21.9512 64.7935 21.963 64.8977 21.9772V24.0085C64.8125 23.9848 64.661 23.9588 64.4432 23.9304C64.2254 23.8972 64.0076 23.8807 63.7898 23.8807C63.2879 23.8807 62.8404 23.9872 62.4474 24.2003C62.0592 24.4086 61.7514 24.6998 61.5241 25.0738C61.2969 25.4432 61.1832 25.8646 61.1832 26.338V33H59.0596ZM71.0465 33.2201C69.9717 33.2201 69.046 32.9905 68.2695 32.5312C67.4977 32.0672 66.9011 31.4162 66.4797 30.5781C66.0631 29.7353 65.8547 28.7481 65.8547 27.6164C65.8547 26.499 66.0631 25.5142 66.4797 24.6619C66.9011 23.8096 67.4883 23.1444 68.2411 22.6662C68.9987 22.1879 69.8841 21.9488 70.8974 21.9488C71.5129 21.9488 72.1095 22.0506 72.6871 22.2542C73.2648 22.4578 73.7832 22.7774 74.2425 23.213C74.7018 23.6486 75.064 24.2145 75.3292 24.9105C75.5943 25.6018 75.7269 26.4422 75.7269 27.4318V28.1846H67.055V26.5937H73.6459C73.6459 26.035 73.5323 25.5402 73.305 25.1093C73.0777 24.6737 72.7581 24.3305 72.3462 24.0795C71.939 23.8286 71.4608 23.7031 70.9116 23.7031C70.315 23.7031 69.7941 23.8499 69.3491 24.1434C68.9087 24.4323 68.5678 24.811 68.3263 25.2798C68.0896 25.7438 67.9712 26.2481 67.9712 26.7926V28.0355C67.9712 28.7646 68.0991 29.3849 68.3547 29.8963C68.6152 30.4076 68.9774 30.7983 69.4414 31.0682C69.9054 31.3333 70.4475 31.4659 71.0678 31.4659C71.4703 31.4659 71.8372 31.4091 72.1687 31.2954C72.5001 31.1771 72.7866 31.0019 73.028 30.7699C73.2695 30.5378 73.4542 30.2514 73.582 29.9105L75.592 30.2727C75.431 30.8646 75.1421 31.383 74.7255 31.8281C74.3135 32.2684 73.7951 32.6117 73.1701 32.8579C72.5498 33.0994 71.842 33.2201 71.0465 33.2201ZM81.2578 33.2414C80.5665 33.2414 79.9415 33.1136 79.3828 32.8579C78.8241 32.5975 78.3814 32.2211 78.0547 31.7287C77.7327 31.2362 77.5717 30.6325 77.5717 29.9176C77.5717 29.3021 77.6901 28.7954 77.9268 28.3977C78.1636 28 78.4832 27.6851 78.8856 27.4531C79.2881 27.2211 79.7379 27.0459 80.2351 26.9275C80.7322 26.8092 81.2389 26.7192 81.7549 26.6576C82.4084 26.5819 82.9387 26.5203 83.3459 26.473C83.7531 26.4209 84.049 26.338 84.2336 26.2244C84.4183 26.1108 84.5106 25.9261 84.5106 25.6704V25.6207C84.5106 25.0004 84.3354 24.5199 83.9851 24.1789C83.6394 23.838 83.1233 23.6676 82.4368 23.6676C81.7218 23.6676 81.1584 23.8262 80.7464 24.1434C80.3392 24.4559 80.0575 24.8039 79.9013 25.1875L77.9055 24.7329C78.1423 24.07 78.4879 23.535 78.9424 23.1278C79.4017 22.7159 79.9297 22.4176 80.5263 22.2329C81.1228 22.0435 81.7502 21.9488 82.4084 21.9488C82.844 21.9488 83.3056 22.0009 83.7933 22.1051C84.2857 22.2045 84.745 22.3892 85.1711 22.6591C85.602 22.9289 85.9548 23.3148 86.2294 23.8167C86.504 24.3139 86.6413 24.9602 86.6413 25.7557V33H84.5674V31.5085H84.4822C84.3449 31.7831 84.1389 32.053 83.8643 32.3182C83.5897 32.5833 83.237 32.8035 82.8061 32.9787C82.3752 33.1539 81.8591 33.2414 81.2578 33.2414ZM81.7194 31.5369C82.3066 31.5369 82.8085 31.4209 83.2251 31.1889C83.6465 30.9569 83.9661 30.6539 84.1839 30.2798C84.4065 29.901 84.5177 29.4962 84.5177 29.0653V27.6591C84.442 27.7348 84.2952 27.8058 84.0774 27.8721C83.8643 27.9337 83.6205 27.9881 83.3459 28.0355C83.0712 28.0781 82.8037 28.1183 82.5433 28.1562C82.2829 28.1894 82.0651 28.2178 81.8899 28.2414C81.478 28.2935 81.1015 28.3811 80.7606 28.5042C80.4245 28.6273 80.1546 28.8049 79.951 29.0369C79.7521 29.2642 79.6527 29.5672 79.6527 29.946C79.6527 30.4716 79.8468 30.8693 80.2351 31.1392C80.6233 31.4043 81.1181 31.5369 81.7194 31.5369ZM89.4698 33V22.0909H91.5081V23.8664H91.6431C91.8704 23.2651 92.242 22.7964 92.7581 22.4602C93.2742 22.1193 93.8921 21.9488 94.6118 21.9488C95.341 21.9488 95.9518 22.1193 96.4442 22.4602C96.9414 22.8011 97.3083 23.2699 97.5451 23.8664H97.6587C97.9191 23.2841 98.3334 22.82 98.9016 22.4744C99.4698 22.124 100.147 21.9488 100.933 21.9488C101.922 21.9488 102.73 22.259 103.355 22.8792C103.984 23.4995 104.299 24.4346 104.299 25.6846V33H102.176V25.8835C102.176 25.1449 101.975 24.6098 101.572 24.2784C101.17 23.9469 100.689 23.7812 100.13 23.7812C99.439 23.7812 98.9016 23.9943 98.5181 24.4204C98.1346 24.8418 97.9428 25.384 97.9428 26.0468V33H95.8263V25.7485C95.8263 25.1567 95.6417 24.6808 95.2724 24.321C94.903 23.9611 94.4224 23.7812 93.8306 23.7812C93.4281 23.7812 93.0564 23.8878 92.7155 24.1008C92.3794 24.3092 92.1071 24.6003 91.8988 24.9744C91.6952 25.3485 91.5934 25.7817 91.5934 26.2741V33H89.4698ZM111.892 20.3437V18.4545H123.149V20.3437H118.61V33H116.423V20.3437H111.892ZM124.333 33V22.0909H126.386V23.8238H126.499C126.698 23.2367 127.049 22.7751 127.55 22.4389C128.057 22.098 128.63 21.9275 129.269 21.9275C129.402 21.9275 129.558 21.9323 129.738 21.9417C129.923 21.9512 130.067 21.963 130.171 21.9772V24.0085C130.086 23.9848 129.934 23.9588 129.717 23.9304C129.499 23.8972 129.281 23.8807 129.063 23.8807C128.561 23.8807 128.114 23.9872 127.721 24.2003C127.333 24.4086 127.025 24.6998 126.798 25.0738C126.57 25.4432 126.457 25.8646 126.457 26.338V33H124.333ZM135.086 33.2414C134.395 33.2414 133.77 33.1136 133.211 32.8579C132.652 32.5975 132.209 32.2211 131.883 31.7287C131.561 31.2362 131.4 30.6325 131.4 29.9176C131.4 29.3021 131.518 28.7954 131.755 28.3977C131.992 28 132.311 27.6851 132.714 27.4531C133.116 27.2211 133.566 27.0459 134.063 26.9275C134.56 26.8092 135.067 26.7192 135.583 26.6576C136.236 26.5819 136.767 26.5203 137.174 26.473C137.581 26.4209 137.877 26.338 138.062 26.2244C138.246 26.1108 138.339 25.9261 138.339 25.6704V25.6207C138.339 25.0004 138.164 24.5199 137.813 24.1789C137.468 23.838 136.951 23.6676 136.265 23.6676C135.55 23.6676 134.986 23.8262 134.575 24.1434C134.167 24.4559 133.886 24.8039 133.729 25.1875L131.734 24.7329C131.97 24.07 132.316 23.535 132.771 23.1278C133.23 22.7159 133.758 22.4176 134.354 22.2329C134.951 22.0435 135.578 21.9488 136.236 21.9488C136.672 21.9488 137.134 22.0009 137.621 22.1051C138.114 22.2045 138.573 22.3892 138.999 22.6591C139.43 22.9289 139.783 23.3148 140.058 23.8167C140.332 24.3139 140.469 24.9602 140.469 25.7557V33H138.396V31.5085H138.31C138.173 31.7831 137.967 32.053 137.692 32.3182C137.418 32.5833 137.065 32.8035 136.634 32.9787C136.203 33.1539 135.687 33.2414 135.086 33.2414ZM135.548 31.5369C136.135 31.5369 136.637 31.4209 137.053 31.1889C137.475 30.9569 137.794 30.6539 138.012 30.2798C138.235 29.901 138.346 29.4962 138.346 29.0653V27.6591C138.27 27.7348 138.123 27.8058 137.906 27.8721C137.692 27.9337 137.449 27.9881 137.174 28.0355C136.899 28.0781 136.632 28.1183 136.371 28.1562C136.111 28.1894 135.893 28.2178 135.718 28.2414C135.306 28.2935 134.93 28.3811 134.589 28.5042C134.253 28.6273 133.983 28.8049 133.779 29.0369C133.58 29.2642 133.481 29.5672 133.481 29.946C133.481 30.4716 133.675 30.8693 134.063 31.1392C134.451 31.4043 134.946 31.5369 135.548 31.5369ZM152.24 22.0909L148.284 33H146.011L142.048 22.0909H144.328L147.091 30.4858H147.204L149.96 22.0909H152.24ZM158.566 33.2201C157.491 33.2201 156.566 32.9905 155.789 32.5312C155.017 32.0672 154.421 31.4162 153.999 30.5781C153.583 29.7353 153.374 28.7481 153.374 27.6164C153.374 26.499 153.583 25.5142 153.999 24.6619C154.421 23.8096 155.008 23.1444 155.761 22.6662C156.518 22.1879 157.404 21.9488 158.417 21.9488C159.032 21.9488 159.629 22.0506 160.207 22.2542C160.784 22.4578 161.303 22.7774 161.762 23.213C162.221 23.6486 162.584 24.2145 162.849 24.9105C163.114 25.6018 163.246 26.4422 163.246 27.4318V28.1846H154.575V26.5937H161.165C161.165 26.035 161.052 25.5402 160.825 25.1093C160.597 24.6737 160.278 24.3305 159.866 24.0795C159.459 23.8286 158.98 23.7031 158.431 23.7031C157.834 23.7031 157.314 23.8499 156.869 24.1434C156.428 24.4323 156.087 24.811 155.846 25.2798C155.609 25.7438 155.491 26.2481 155.491 26.7926V28.0355C155.491 28.7646 155.619 29.3849 155.874 29.8963C156.135 30.4076 156.497 30.7983 156.961 31.0682C157.425 31.3333 157.967 31.4659 158.587 31.4659C158.99 31.4659 159.357 31.4091 159.688 31.2954C160.02 31.1771 160.306 31.0019 160.548 30.7699C160.789 30.5378 160.974 30.2514 161.102 29.9105L163.111 30.2727C162.95 30.8646 162.662 31.383 162.245 31.8281C161.833 32.2684 161.315 32.6117 160.69 32.8579C160.069 33.0994 159.361 33.2201 158.566 33.2201ZM167.726 18.4545V33H165.603V18.4545H167.726Z" fill="#F4F4F4"/>
<path d="M29.7333 11.2L21.6886 19.2447L10.4482 16.1787C10.2984 16.138 10.1406 16.1375 9.99063 16.1774C9.84066 16.2173 9.70389 16.2961 9.59417 16.4058L7.04695 18.953C6.63356 19.3664 6.73078 20.0602 7.24178 20.3441L15.8222 25.1111L11.8221 29.1112L7.90212 28.5512C7.62795 28.5119 7.35106 28.6045 7.15545 28.8001L5.60028 30.3553C5.19545 30.7601 5.27867 31.4375 5.76984 31.7319L11.1999 34.7112L14.1792 40.1413C14.4736 40.6324 15.151 40.7157 15.5558 40.3108L17.111 38.7557C17.307 38.5597 17.3992 38.2832 17.3599 38.009L16.7999 34.089L20.8 30.0889L25.5666 38.6689C25.8505 39.1799 26.5447 39.2775 26.9581 38.8642L29.5053 36.3169C29.7285 36.0937 29.8148 35.7678 29.732 35.4633L26.6664 24.2225L34.7111 16.1778C36.0858 14.8031 37.3303 11.3303 35.9555 9.95556C34.5808 8.58084 31.1081 9.82528 29.7333 11.2Z" fill="white"/>
</svg>
