<svg width="53" height="62" viewBox="0 0 53 62" fill="none" xmlns="http://www.w3.org/2000/svg">
<path d="M51.375 25.5455C51.375 44.6364 26.375 61 26.375 61C26.375 61 1.375 44.6364 1.375 25.5455C1.375 19.0356 4.00892 12.7924 8.69733 8.1892C13.3857 3.58603 19.7446 1 26.375 1C33.0054 1 39.3643 3.58603 44.0527 8.1892C48.7411 12.7924 51.375 19.0356 51.375 25.5455Z" fill="#FF0000" stroke="#FF0000" stroke-width="2" stroke-linecap="round" stroke-linejoin="round"/>
<path d="M26.375 33.7274C30.9773 33.7274 34.7083 30.0643 34.7083 25.5456C34.7083 21.0269 30.9773 17.3638 26.375 17.3638C21.7726 17.3638 18.0416 21.0269 18.0416 25.5456C18.0416 30.0643 21.7726 33.7274 26.375 33.7274Z" fill="#E6E4E0"/>
</svg>
