<svg width="387" height="629" viewBox="0 0 387 629" fill="none" xmlns="http://www.w3.org/2000/svg">
<path fill-rule="evenodd" clip-rule="evenodd" d="M132.283 0.157854C70.7675 -1.01603 22.7885 47.0226 -37.0925 61.1072C-110.912 78.4703 -215.529 28.2358 -256.927 91.7038C-298.43 155.333 -210.064 230.969 -196.667 305.754C-185.936 365.659 -213.274 428.783 -186.731 483.568C-156.382 546.21 -109.471 611.903 -41.3362 626.358C26.2936 640.707 86.1068 585.793 147.728 554.527C201.488 527.249 254.825 501.801 294.144 456.137C338.083 405.108 376.401 347.517 383.614 280.577C391.578 206.656 385.6 123.634 335.939 68.2256C286.984 13.6052 205.637 1.55764 132.283 0.157854Z" fill="#FFE9E2"/>
</svg>
