<svg width="157" height="149" viewBox="0 0 157 149" fill="none" xmlns="http://www.w3.org/2000/svg">
<path fill-rule="evenodd" clip-rule="evenodd" d="M120.985 35.9927C132.446 46.5107 150.899 50.9363 155.367 65.8316C159.97 81.176 152.404 97.8399 143.532 111.152C134.991 123.967 121.309 131.552 107.3 137.95C93.0434 144.461 78.1837 149.563 62.5639 148.131C45.35 146.553 27.1303 142.335 15.4909 129.535C3.79579 116.674 -0.235006 98.0138 1.25545 80.711C2.60316 65.0654 14.9254 53.7003 23.1733 40.3502C31.1749 27.3987 34.8585 10.1236 48.7347 3.86097C62.6476 -2.41827 79.2093 2.54572 93.1751 8.7567C105.324 14.1599 111.186 26.9997 120.985 35.9927Z" fill="#FAEAF6"/>
</svg>
